<svg xmlns="http://www.w3.org/2000/svg" xmlns:xlink="http://www.w3.org/1999/xlink" style="position: absolute; width: 0; height: 0" aria-hidden="true" id="__SVG_SPRITE_NODE__"><symbol xmlns="http://www.w3.org/2000/svg" viewBox="0 0 19.418 19.418" id="close-592d3ec34e63e5ca8b2216de860007b2"><path id="close-592d3ec34e63e5ca8b2216de860007b2_Path_2016" d="M0,2.734,2.734,0l7,6.955L16.684,0l2.734,2.734-6.955,7,6.955,6.955-2.734,2.734L9.729,12.463l-7,6.955L0,16.684,6.955,9.729Z" fill-rule="evenodd"></path></symbol><symbol xmlns="http://www.w3.org/2000/svg" viewBox="0 0 24 24" id="chevron_left-1f1bcc17d037a68b0a54789082827bf1"><path d="M0 0h24v24H0V0z" fill="none"></path><path d="M14.71 6.71c-.39-.39-1.02-.39-1.41 0L8.71 11.3c-.39.39-.39 1.02 0 1.41l4.59 4.59c.39.39 1.02.39 1.41 0 .39-.39.39-1.02 0-1.41L10.83 12l3.88-3.88c.39-.39.38-1.03 0-1.41z"></path></symbol><symbol xmlns="http://www.w3.org/2000/svg" viewBox="0 0 24 24" id="chevron_right-43348a741a3250672b4cd410153577da"><path d="M0 0h24v24H0V0z" fill="none"></path><path d="M9.29 6.71c-.39.39-.39 1.02 0 1.41L13.17 12l-3.88 3.88c-.39.39-.39 1.02 0 1.41.39.39 1.02.39 1.41 0l4.59-4.59c.39-.39.39-1.02 0-1.41L10.7 6.7c-.38-.38-1.02-.38-1.41.01z"></path></symbol><symbol xmlns="http://www.w3.org/2000/svg" viewBox="0 0 99.17 41.784" id="canva-5a88813682199c0725d6c11b4f6936a4"><path class="a" d="M80.907,68.225c-2.749,3.024-6.6,4.536-8.384,4.536A3.26,3.26,0,0,1,69.087,69.6a5.95,5.95,0,0,1,.137-2.2c.687-4.261,2.2-7.01,2.2-7.7,0-.275-.137-.412-.275-.412-1.375,0-6.048,4.811-6.735,7.972l-.55,2.612a3.722,3.722,0,0,1-3.3,2.886,1.047,1.047,0,0,1-1.1-.962v-.825L59.74,69.6c-2.474,1.924-5.223,3.161-6.46,3.161a2.788,2.788,0,0,1-3.024-2.337A5.243,5.243,0,0,1,46,72.761a5.643,5.643,0,0,1-4.948-3.436A25.152,25.152,0,0,1,36.1,73.586c-2.886,1.787-6.048,3.3-9.759,3.3a11.915,11.915,0,0,1-7.972-3.3c-2.474-2.2-3.711-5.635-4.123-8.659-1.237-9.621,4.673-22.4,13.882-27.9a13.064,13.064,0,0,1,6.6-1.924,7.968,7.968,0,0,1,8.109,6.872c.412,3.436-.962,6.323-4.673,8.109-1.924.962-2.886.962-3.161.412a.9.9,0,0,1,.275-1.1c3.574-2.886,3.574-5.361,3.161-8.8-.275-2.2-1.649-3.574-3.3-3.574-7.147,0-17.044,15.532-15.669,26.8.55,4.4,3.3,9.484,8.8,9.484a13,13,0,0,0,5.5-1.374,17.287,17.287,0,0,0,6.46-4.811C39.81,61.9,44.346,55.3,50.943,55.3c2.886,0,5.223,1.1,5.5,3.436a2.866,2.866,0,0,1-3.024,3.436c-.825,0-2.062-.275-2.2-.962-.137-.825,1.787-.412,1.512-2.2-.137-1.1-1.374-1.512-2.474-1.512-4.123,0-6.46,5.773-6.048,9.347.137,1.649,1.1,3.3,2.474,3.3,1.237,0,3.024-1.787,3.574-4.261A3.722,3.722,0,0,1,53.555,63c.687,0,1.1.275,1.1.962v.825c-.137.687-.687,3.3-.687,3.711a1.073,1.073,0,0,0,1.1,1.1c.687,0,2.886-1.237,5.086-3.161.687-3.436,1.512-7.7,1.512-7.972.275-1.374.825-2.886,3.574-2.886a1.047,1.047,0,0,1,1.1.962v.825l-.687,3.711c2.474-3.3,6.323-5.773,8.659-5.773a1.814,1.814,0,0,1,1.924,1.512,7.1,7.1,0,0,1-.412,2.612,58.183,58.183,0,0,0-2.337,8.522,1.17,1.17,0,0,0,1.237,1.512c.962,0,3.849-1.1,6.185-4.261V63.827a17.855,17.855,0,0,1,.687-5.91,4.46,4.46,0,0,1,3.574-2.886,1.012,1.012,0,0,1,1.1,1.1,1.743,1.743,0,0,1-.137.825,24.221,24.221,0,0,0-1.375,7.285,22.764,22.764,0,0,0,.55,4.536.364.364,0,0,0,.412.412c.412,0,3.161-2.612,5.086-5.91a6.333,6.333,0,0,1-2.749-5.635c0-4.123,2.474-6.323,4.948-6.323,1.924,0,3.574,1.374,3.574,4.123a13.122,13.122,0,0,1-1.649,5.635h.55a4.194,4.194,0,0,0,3.3-1.512,3.644,3.644,0,0,1,.825-.687,10.572,10.572,0,0,1,8.109-3.986c2.886,0,5.223,1.1,5.5,3.436a3.042,3.042,0,0,1-3.024,3.574c-.825,0-2.2-.275-2.2-.962-.137-.687,1.787-.412,1.649-2.2-.137-1.1-1.374-1.649-2.474-1.649-3.849,0-6.46,5.086-6.048,9.346.137,1.649.962,3.3,2.474,3.3,1.237,0,3.024-1.787,3.711-4.261a3.9,3.9,0,0,1,3.3-2.886.974.974,0,0,1,1.1.962,30.825,30.825,0,0,1-.687,3.849,11.84,11.84,0,0,0-.275,2.886,6.185,6.185,0,0,0,1.649,3.436,1.256,1.256,0,0,1,.412.687.792.792,0,0,1-.825.825.826.826,0,0,1-.55-.137c-3.024-1.237-4.261-3.3-4.536-5.086a5.1,5.1,0,0,1-4.261,2.2,6.126,6.126,0,0,1-5.635-5.361A9.236,9.236,0,0,1,97.4,63a6.291,6.291,0,0,1-3.3,1.1H93.14a27.517,27.517,0,0,1-7.422,7.56,5.65,5.65,0,0,1-2.2.687,1.492,1.492,0,0,1-1.237-.55c-.825-.55-1.237-1.924-1.375-3.574Zm9.347-12.37a7.043,7.043,0,0,0,1.787,4.4,9.448,9.448,0,0,0,.687-3.3c0-2.062-.825-3.024-1.374-3.024C90.529,53.93,90.254,55.03,90.254,55.855Z" transform="translate(-14.081 -35.1)"></path></symbol><symbol xmlns="http://www.w3.org/2000/svg" viewBox="0 0 24 24" id="history-c494f4de4fe5f6bdf1566fcf297b07fb"><path id="history-c494f4de4fe5f6bdf1566fcf297b07fb_Tracé_2230" d="M13.11,2.8a9.061,9.061,0,0,0-9.328,8.879H2.105c-.443,0-.774.723-.459,1.029l2.828,2.907c.2.2.629.3.826.107l2.965-3.015a.657.657,0,0,0-.409-1.029H6.145a6.392,6.392,0,0,1,6.771-6.512,6.68,6.68,0,0,1,6.625,6.625,6.561,6.561,0,0,1-6.7,6.781,6.6,6.6,0,0,1-4.155-1.431,1.33,1.33,0,0,0-1.537.168,1.237,1.237,0,0,0,.14,1.675,9.1,9.1,0,0,0,5.553,1.94A9.146,9.146,0,0,0,21.9,11.678,9.381,9.381,0,0,0,13.11,2.8Zm-.535,4.927a.87.87,0,0,0-.871.739V12.3a1.488,1.488,0,0,0,.606,1.041l3.078,1.821a.987.987,0,0,0,1.178-.348,1.141,1.141,0,0,0-.318-1.292l-2.77-1.648v-3.4c0-.394-.5-.739-.9-.739Z" transform="translate(0.292 0.133)"></path></symbol><symbol xmlns="http://www.w3.org/2000/svg" viewBox="0 0 24 24" id="expand_more-d498cb17085731dcecc2a43193842281"><path d="M24 24H0V0h24v24z" fill="none"></path><path d="M15.88 9.29L12 13.17 8.12 9.29c-.39-.39-1.02-.39-1.41 0-.39.39-.39 1.02 0 1.41l4.59 4.59c.39.39 1.02.39 1.41 0l4.59-4.59c.39-.39.39-1.02 0-1.41-.39-.38-1.03-.39-1.42 0z"></path></symbol><symbol xmlns="http://www.w3.org/2000/svg" viewBox="0 0 24 24" id="notifications-6bfcb787dcbd6bc3c6761bb4c0333d49"><path d="M0 0h24v24H0V0z" fill="none"></path><path d="M12 22c1.1 0 2-.9 2-2h-4c0 1.1.89 2 2 2zm6-6v-5c0-3.07-1.64-5.64-4.5-6.32V4c0-.83-.67-1.5-1.5-1.5s-1.5.67-1.5 1.5v.68C7.63 5.36 6 7.92 6 11v5l-1.29 1.29c-.63.63-.19 1.71.7 1.71h13.17c.89 0 1.34-1.08.71-1.71L18 16z"></path></symbol><symbol xmlns="http://www.w3.org/2000/svg" viewBox="0 0 24 24" id="notifications_none-3c6dabd55aeb2a448b892c5cb998a0dc"><path d="M0 0h24v24H0V0z" fill="none"></path><path d="M19.29 17.29L18 16v-5c0-3.07-1.64-5.64-4.5-6.32V4c0-.83-.67-1.5-1.5-1.5s-1.5.67-1.5 1.5v.68C7.63 5.36 6 7.92 6 11v5l-1.29 1.29c-.63.63-.19 1.71.7 1.71h13.17c.9 0 1.34-1.08.71-1.71zM16 17H8v-6c0-2.48 1.51-4.5 4-4.5s4 2.02 4 4.5v6zm-4 5c1.1 0 2-.9 2-2h-4c0 1.1.89 2 2 2z"></path></symbol><symbol xmlns="http://www.w3.org/2000/svg" viewBox="0 0 24 24" id="menu-f3883d0dbd751749e5f9b72aa0c91502"><path d="M0 0h24v24H0V0z" fill="none"></path><path d="M4 18h16c.55 0 1-.45 1-1s-.45-1-1-1H4c-.55 0-1 .45-1 1s.45 1 1 1zm0-5h16c.55 0 1-.45 1-1s-.45-1-1-1H4c-.55 0-1 .45-1 1s.45 1 1 1zM3 7c0 .55.45 1 1 1h16c.55 0 1-.45 1-1s-.45-1-1-1H4c-.55 0-1 .45-1 1z"></path></symbol><symbol xmlns="http://www.w3.org/2000/svg" viewBox="0 0 24 24" id="close-d5910dd0e9f84305827f5486554a1617"><path d="M0 0h24v24H0V0z" fill="none"></path><path d="M18.3 5.71c-.39-.39-1.02-.39-1.41 0L12 10.59 7.11 5.7c-.39-.39-1.02-.39-1.41 0-.39.39-.39 1.02 0 1.41L10.59 12 5.7 16.89c-.39.39-.39 1.02 0 1.41.39.39 1.02.39 1.41 0L12 13.41l4.89 4.89c.39.39 1.02.39 1.41 0 .39-.39.39-1.02 0-1.41L13.41 12l4.89-4.89c.38-.38.38-1.02 0-1.4z"></path></symbol><symbol xmlns="http://www.w3.org/2000/svg" viewBox="0 0 24 24" id="more_horiz-2eade203b098366b612487ee18fcc928"><path d="M0 0h24v24H0V0z" fill="none"></path><path d="M6 10c-1.1 0-2 .9-2 2s.9 2 2 2 2-.9 2-2-.9-2-2-2zm12 0c-1.1 0-2 .9-2 2s.9 2 2 2 2-.9 2-2-.9-2-2-2zm-6 0c-1.1 0-2 .9-2 2s.9 2 2 2 2-.9 2-2-.9-2-2-2z"></path></symbol><symbol xmlns="http://www.w3.org/2000/svg" viewBox="0 0 24 24" id="search-bd8e50c200501dff8322340f6275033b"><path d="M0 0h24v24H0V0z" fill="none"></path><path d="M15.5 14h-.79l-.28-.27c1.2-1.4 1.82-3.31 1.48-5.34-.47-2.78-2.79-5-5.59-5.34-4.23-.52-7.79 3.04-7.27 7.27.34 2.8 2.56 5.12 5.34 5.59 2.03.34 3.94-.28 5.34-1.48l.27.28v.79l4.25 4.25c.41.41 1.08.41 1.49 0 .41-.41.41-1.08 0-1.49L15.5 14zm-6 0C7.01 14 5 11.99 5 9.5S7.01 5 9.5 5 14 7.01 14 9.5 11.99 14 9.5 14z"></path></symbol><symbol xmlns="http://www.w3.org/2000/svg" viewBox="0 0 16 16" id="image_outline-eb5e80fa8b4b19a3114294781046ad8c"><path id="image_outline-eb5e80fa8b4b19a3114294781046ad8c_imagesmode_FILL0_wght400_GRAD0_opsz48" d="M6.4,20A2.39,2.39,0,0,1,4,17.6V6.4A2.39,2.39,0,0,1,6.4,4H17.6A2.39,2.39,0,0,1,20,6.4V17.6A2.39,2.39,0,0,1,17.6,20Zm0-1.2H17.6a1.148,1.148,0,0,0,.86-.35,1.175,1.175,0,0,0,.34-.85V6.4a1.163,1.163,0,0,0-1.2-1.2H6.4a1.175,1.175,0,0,0-.85.34,1.148,1.148,0,0,0-.35.86V17.6a1.2,1.2,0,0,0,1.2,1.2Zm1.28-2.2,2.72-2.72,1.46,1.44,1.74-2.2,2.78,3.48ZM8.8,10.2a1.4,1.4,0,0,1-.99-2.39A1.4,1.4,0,0,1,9.79,9.79,1.349,1.349,0,0,1,8.8,10.2Z" transform="translate(-4 -4)"></path></symbol><symbol xmlns="http://www.w3.org/2000/svg" viewBox="0 0 16 16" id="video_outline-2319bf7c8918365384fe414eb53b7747"><path id="video_outline-2319bf7c8918365384fe414eb53b7747_slideshow_FILL0_wght400_GRAD0_opsz48" d="M11.933,17.756,17.733,14l-5.8-3.756ZM7.333,22A1.367,1.367,0,0,1,6,20.667V7.333A1.367,1.367,0,0,1,7.333,6H20.667A1.367,1.367,0,0,1,22,7.333V20.667A1.367,1.367,0,0,1,20.667,22Zm0-1.333H20.667V7.333H7.333Zm0-13.333v0Z" transform="translate(-6 -6)"></path></symbol><symbol viewBox="0 0 25 12" id="EquilateralPointer-7d8cc81431bc0f451da8446e739eb00c"><polygon points="0,12 12.5,0 25,12"></polygon></symbol><symbol viewBox="0 0 12 25" id="EquilateralPointerSideways-4e64b9e3fcaf5a171b4a6ec837e70070"><polygon points="0,0 12,12, 0,25, 0,0"></polygon></symbol><symbol viewBox="0 0 20 12" id="RightAnglePointer-5eea033a698a86f07ba1ccdffecf1499"><polygon points="0,11 20,0 20,12"></polygon></symbol><symbol viewBox="0 0 12 20" id="RightAnglePointerSideways-79eae29587f78bfd85d1579b30fad6ea"><polygon points="0,0 12,20 0,20, 0,0"></polygon></symbol><symbol xmlns="http://www.w3.org/2000/svg" viewBox="0 0 130.318 50" id="_new-logo-white-abc4f71226e2999ad0286c994c760cc8"><g transform="translate(-3894 2762)"><rect width="50" height="50" rx="8" transform="translate(3894 -2762)" fill="#07a081"></rect><path d="M32.671,44.73h7.091V37.935H41.9a5.657,5.657,0,1,0,0-11.314H32.671Zm10.763,3.622H29V23H41.9a9.271,9.271,0,0,1,1.53,18.435Z" transform="translate(3880 -2773)" fill="#fff"></path><path d="M1.694,0h2.6V-6.16H7.656a6.579,6.579,0,0,0,2.915-.616,4.639,4.639,0,0,0,1.969-1.76,5.1,5.1,0,0,0,.7-2.728,5.146,5.146,0,0,0-.7-2.75,4.639,4.639,0,0,0-1.969-1.76,6.579,6.579,0,0,0-2.915-.616H1.694Zm2.6-8.47v-5.61H7.722a3.03,3.03,0,0,1,2.134.748,2.641,2.641,0,0,1,.814,2.046A2.684,2.684,0,0,1,9.856-9.24a2.978,2.978,0,0,1-2.134.77ZM20.372.264a5.925,5.925,0,0,0,3.179-.836,4.64,4.64,0,0,0,1.9-2.112l-2.024-.99a3.73,3.73,0,0,1-1.2,1.243,3.29,3.29,0,0,1-1.837.5A3.458,3.458,0,0,1,18-2.827a3.433,3.433,0,0,1-1.1-2.409H25.74a3.34,3.34,0,0,0,.088-.572q.022-.308.022-.594a6.154,6.154,0,0,0-.671-2.849,5.361,5.361,0,0,0-1.936-2.112,5.61,5.61,0,0,0-3.069-.8,5.7,5.7,0,0,0-3,.8,5.773,5.773,0,0,0-2.1,2.2,6.476,6.476,0,0,0-.77,3.179A6.482,6.482,0,0,0,15.081-2.8,5.9,5.9,0,0,0,17.226-.561,5.958,5.958,0,0,0,20.372.264Zm-.2-10.34a3,3,0,0,1,2.112.792,2.9,2.9,0,0,1,.924,2.068H16.94a3.313,3.313,0,0,1,1.122-2.112A3.208,3.208,0,0,1,20.174-10.076ZM26.422,0h2.926l2.706-3.982L34.738,0h2.926L33.506-5.962l4.18-5.94H34.76L32.054-7.964,29.348-11.9H26.422l4.158,5.94ZM44.088.264a5.925,5.925,0,0,0,3.179-.836,4.64,4.64,0,0,0,1.9-2.112l-2.024-.99a3.73,3.73,0,0,1-1.2,1.243,3.29,3.29,0,0,1-1.837.5,3.458,3.458,0,0,1-2.4-.891,3.433,3.433,0,0,1-1.1-2.409h8.844a3.34,3.34,0,0,0,.088-.572q.022-.308.022-.594A6.154,6.154,0,0,0,48.9-9.251a5.361,5.361,0,0,0-1.936-2.112,5.61,5.61,0,0,0-3.069-.8,5.7,5.7,0,0,0-3,.8,5.773,5.773,0,0,0-2.1,2.2,6.476,6.476,0,0,0-.77,3.179A6.482,6.482,0,0,0,38.8-2.8,5.9,5.9,0,0,0,40.942-.561,5.958,5.958,0,0,0,44.088.264Zm-.2-10.34A3,3,0,0,1,46-9.284a2.9,2.9,0,0,1,.924,2.068h-6.27a3.313,3.313,0,0,1,1.122-2.112A3.208,3.208,0,0,1,43.89-10.076ZM51.546,0h2.486V-16.654H51.546ZM60.9.264a5.6,5.6,0,0,0,2.321-.451,3.635,3.635,0,0,0,1.551-1.254,3.21,3.21,0,0,0,.55-1.859,3.088,3.088,0,0,0-.792-2.123A4.635,4.635,0,0,0,62.26-6.732L60.324-7.3a4.436,4.436,0,0,1-1.034-.484,1.023,1.023,0,0,1-.484-.924,1.212,1.212,0,0,1,.484-1.012,2.068,2.068,0,0,1,1.3-.374,3.005,3.005,0,0,1,1.705.506A2.944,2.944,0,0,1,63.4-8.228l1.914-.9a4.344,4.344,0,0,0-1.8-2.233,5.337,5.337,0,0,0-2.9-.8,5.1,5.1,0,0,0-2.178.451,3.7,3.7,0,0,0-1.518,1.243,3.2,3.2,0,0,0-.55,1.87,3.1,3.1,0,0,0,.759,2.09,4.624,4.624,0,0,0,2.3,1.32l1.87.528a3.923,3.923,0,0,1,1.078.473,1.057,1.057,0,0,1,.506.957,1.259,1.259,0,0,1-.55,1.078,2.391,2.391,0,0,1-1.43.4,3.2,3.2,0,0,1-1.881-.594A4.049,4.049,0,0,1,57.684-3.96l-1.914.9a4.774,4.774,0,0,0,1.925,2.42A5.7,5.7,0,0,0,60.9.264Z" transform="translate(3959 -2728)" fill="#fff"></path></g></symbol><symbol xmlns="http://www.w3.org/2000/svg" viewBox="0 0 130.318 50" id="_new-logo-ec401aee25edd9f77fc4174cac57dbdf"><g transform="translate(-3894 2762)"><rect width="50" height="50" rx="8" transform="translate(3894 -2762)" fill="#07a081"></rect><path d="M32.671,44.73h7.091V37.935H41.9a5.657,5.657,0,1,0,0-11.314H32.671Zm10.763,3.622H29V23H41.9a9.271,9.271,0,0,1,1.53,18.435Z" transform="translate(3880 -2773)" fill="#fff"></path><path d="M1.694,0h2.6V-6.16H7.656a6.579,6.579,0,0,0,2.915-.616,4.639,4.639,0,0,0,1.969-1.76,5.1,5.1,0,0,0,.7-2.728,5.146,5.146,0,0,0-.7-2.75,4.639,4.639,0,0,0-1.969-1.76,6.579,6.579,0,0,0-2.915-.616H1.694Zm2.6-8.47v-5.61H7.722a3.03,3.03,0,0,1,2.134.748,2.641,2.641,0,0,1,.814,2.046A2.684,2.684,0,0,1,9.856-9.24a2.978,2.978,0,0,1-2.134.77ZM20.372.264a5.925,5.925,0,0,0,3.179-.836,4.64,4.64,0,0,0,1.9-2.112l-2.024-.99a3.73,3.73,0,0,1-1.2,1.243,3.29,3.29,0,0,1-1.837.5A3.458,3.458,0,0,1,18-2.827a3.433,3.433,0,0,1-1.1-2.409H25.74a3.34,3.34,0,0,0,.088-.572q.022-.308.022-.594a6.154,6.154,0,0,0-.671-2.849,5.361,5.361,0,0,0-1.936-2.112,5.61,5.61,0,0,0-3.069-.8,5.7,5.7,0,0,0-3,.8,5.773,5.773,0,0,0-2.1,2.2,6.476,6.476,0,0,0-.77,3.179A6.482,6.482,0,0,0,15.081-2.8,5.9,5.9,0,0,0,17.226-.561,5.958,5.958,0,0,0,20.372.264Zm-.2-10.34a3,3,0,0,1,2.112.792,2.9,2.9,0,0,1,.924,2.068H16.94a3.313,3.313,0,0,1,1.122-2.112A3.208,3.208,0,0,1,20.174-10.076ZM26.422,0h2.926l2.706-3.982L34.738,0h2.926L33.506-5.962l4.18-5.94H34.76L32.054-7.964,29.348-11.9H26.422l4.158,5.94ZM44.088.264a5.925,5.925,0,0,0,3.179-.836,4.64,4.64,0,0,0,1.9-2.112l-2.024-.99a3.73,3.73,0,0,1-1.2,1.243,3.29,3.29,0,0,1-1.837.5,3.458,3.458,0,0,1-2.4-.891,3.433,3.433,0,0,1-1.1-2.409h8.844a3.34,3.34,0,0,0,.088-.572q.022-.308.022-.594A6.154,6.154,0,0,0,48.9-9.251a5.361,5.361,0,0,0-1.936-2.112,5.61,5.61,0,0,0-3.069-.8,5.7,5.7,0,0,0-3,.8,5.773,5.773,0,0,0-2.1,2.2,6.476,6.476,0,0,0-.77,3.179A6.482,6.482,0,0,0,38.8-2.8,5.9,5.9,0,0,0,40.942-.561,5.958,5.958,0,0,0,44.088.264Zm-.2-10.34A3,3,0,0,1,46-9.284a2.9,2.9,0,0,1,.924,2.068h-6.27a3.313,3.313,0,0,1,1.122-2.112A3.208,3.208,0,0,1,43.89-10.076ZM51.546,0h2.486V-16.654H51.546ZM60.9.264a5.6,5.6,0,0,0,2.321-.451,3.635,3.635,0,0,0,1.551-1.254,3.21,3.21,0,0,0,.55-1.859,3.088,3.088,0,0,0-.792-2.123A4.635,4.635,0,0,0,62.26-6.732L60.324-7.3a4.436,4.436,0,0,1-1.034-.484,1.023,1.023,0,0,1-.484-.924,1.212,1.212,0,0,1,.484-1.012,2.068,2.068,0,0,1,1.3-.374,3.005,3.005,0,0,1,1.705.506A2.944,2.944,0,0,1,63.4-8.228l1.914-.9a4.344,4.344,0,0,0-1.8-2.233,5.337,5.337,0,0,0-2.9-.8,5.1,5.1,0,0,0-2.178.451,3.7,3.7,0,0,0-1.518,1.243,3.2,3.2,0,0,0-.55,1.87,3.1,3.1,0,0,0,.759,2.09,4.624,4.624,0,0,0,2.3,1.32l1.87.528a3.923,3.923,0,0,1,1.078.473,1.057,1.057,0,0,1,.506.957,1.259,1.259,0,0,1-.55,1.078,2.391,2.391,0,0,1-1.43.4,3.2,3.2,0,0,1-1.881-.594A4.049,4.049,0,0,1,57.684-3.96l-1.914.9a4.774,4.774,0,0,0,1.925,2.42A5.7,5.7,0,0,0,60.9.264Z" transform="translate(3959 -2728)"></path></g></symbol><symbol xmlns="http://www.w3.org/2000/svg" viewBox="0 0 50 50" id="_new-logo_sign-fc2afcd60c03cd8cc096ccdc70a1b7b0"><g transform="translate(-3894 2762)"><rect width="50" height="50" rx="8" transform="translate(3894 -2762)" fill="#07a081"></rect><path d="M32.671,44.73h7.091V37.935H41.9a5.657,5.657,0,1,0,0-11.314H32.671Zm10.763,3.622H29V23H41.9a9.271,9.271,0,0,1,1.53,18.435Z" transform="translate(3880 -2773)" fill="#fff"></path></g></symbol><symbol xmlns="http://www.w3.org/2000/svg" viewBox="0 0 18.246 29.425" id="chevron_left-875ec643170a8faabc776a9c0bbc2932"><path id="chevron_left-875ec643170a8faabc776a9c0bbc2932_Path_2147" d="M-6036.494,8748.076l-14.711-14.711,3.535-3.535,11.176,11.176,11.179-11.176,3.535,3.535Z" transform="translate(8748.076 6051.205) rotate(90)"></path></symbol><symbol xmlns="http://www.w3.org/2000/svg" viewBox="0 0 18.246 29.425" id="chevron_right-a1fec6f118563821b625d080564fb884"><path id="chevron_right-a1fec6f118563821b625d080564fb884_Path_2094" d="M-6036.494,8748.076l-14.711-14.711,3.535-3.535,11.176,11.176,11.179-11.176,3.535,3.535Z" transform="translate(-8729.83 -6021.78) rotate(-90)"></path></symbol><symbol xmlns="http://www.w3.org/2000/svg" viewBox="0 0 24 24" id="check_circle_outline-03816623b2c5f85bf1ad888f7cbdf3f9"><path d="M0 0h24v24H0V0z" fill="none"></path><path d="M12 2C6.48 2 2 6.48 2 12s4.48 10 10 10 10-4.48 10-10S17.52 2 12 2zm0 18c-4.41 0-8-3.59-8-8s3.59-8 8-8 8 3.59 8 8-3.59 8-8 8zm3.88-11.71L10 14.17l-1.88-1.88c-.39-.39-1.02-.39-1.41 0-.39.39-.39 1.02 0 1.41l2.59 2.59c.39.39 1.02.39 1.41 0L17.3 9.7c.39-.39.39-1.02 0-1.41-.39-.39-1.03-.39-1.42 0z"></path></symbol><symbol xmlns="http://www.w3.org/2000/svg" viewBox="0 0 24 24" id="error_outline-674dc7a22d3f5de0250ac30488da7a74"><path d="M12 7c.55 0 1 .45 1 1v4c0 .55-.45 1-1 1s-1-.45-1-1V8c0-.55.45-1 1-1zm-.01-5C6.47 2 2 6.48 2 12s4.47 10 9.99 10C17.52 22 22 17.52 22 12S17.52 2 11.99 2zM12 20c-4.42 0-8-3.58-8-8s3.58-8 8-8 8 3.58 8 8-3.58 8-8 8zm1-3h-2v-2h2v2z"></path></symbol><symbol xmlns="http://www.w3.org/2000/svg" viewBox="0 0 24 24" id="warning_amber-542a67bffd67aa7dd93217e9ed1f24d3"><path d="M12 5.99L19.53 19H4.47L12 5.99M2.74 18c-.77 1.33.19 3 1.73 3h15.06c1.54 0 2.5-1.67 1.73-3L13.73 4.99c-.77-1.33-2.69-1.33-3.46 0L2.74 18zM11 11v2c0 .55.45 1 1 1s1-.45 1-1v-2c0-.55-.45-1-1-1s-1 .45-1 1zm0 5h2v2h-2z"></path></symbol><symbol xmlns="http://www.w3.org/2000/svg" viewBox="0 0 24 24" id="check-25ce86101482efefb13203ae28bc9766"><path d="M0 0h24v24H0V0z" fill="none"></path><path d="M9 16.17L5.53 12.7c-.39-.39-1.02-.39-1.41 0-.39.39-.39 1.02 0 1.41l4.18 4.18c.39.39 1.02.39 1.41 0L20.29 7.71c.39-.39.39-1.02 0-1.41-.39-.39-1.02-.39-1.41 0L9 16.17z"></path></symbol><symbol xmlns="http://www.w3.org/2000/svg" viewBox="0 0 26.085 26.085" id="pinterest-8a4800591c70e0e7137ba78195fc9129"><g id="pinterest-8a4800591c70e0e7137ba78195fc9129_Group_1" transform="translate(0)"><g id="pinterest-8a4800591c70e0e7137ba78195fc9129_g62"><path id="pinterest-8a4800591c70e0e7137ba78195fc9129_path64" d="M-139.447,0A13.043,13.043,0,0,0-152.49,13.043a13.05,13.05,0,0,0,8.29,12.149,12.536,12.536,0,0,1,.045-3.745c.237-1.018,1.529-6.483,1.529-6.483a4.709,4.709,0,0,1-.39-1.936c0-1.814,1.051-3.168,2.36-3.168a1.638,1.638,0,0,1,1.65,1.837,26.274,26.274,0,0,1-1.08,4.343,1.894,1.894,0,0,0,1.931,2.357c2.318,0,4.1-2.444,4.1-5.972A5.149,5.149,0,0,0-139.5,7.117a5.645,5.645,0,0,0-5.889,5.66,5.073,5.073,0,0,0,.971,2.976.39.39,0,0,1,.09.374c-.1.412-.319,1.3-.362,1.479-.057.239-.189.289-.436.174-1.629-.758-2.647-3.14-2.647-5.053,0-4.114,2.989-7.893,8.618-7.893,4.524,0,8.041,3.224,8.041,7.533,0,4.495-2.834,8.112-6.768,8.112a3.491,3.491,0,0,1-2.989-1.5s-.654,2.49-.813,3.1a14.577,14.577,0,0,1-1.621,3.419,13.036,13.036,0,0,0,3.862.582A13.043,13.043,0,0,0-126.4,13.043,13.043,13.043,0,0,0-139.447,0" transform="translate(152.49)" fill="#e60023"></path></g></g></symbol><symbol xmlns="http://www.w3.org/2000/svg" viewBox="0 0 24 24" id="favorite-41d88f0fca0476d36cf224a58b1f2d4b"><path id="favorite-41d88f0fca0476d36cf224a58b1f2d4b_Tracé_2228" d="M19.519,9.6A5.717,5.717,0,0,0,14,4.858h0a5.238,5.238,0,0,0-1.8.278A5.692,5.692,0,0,0,9.616,6.8l-.1-.116a5.377,5.377,0,0,0-4.229-1.85,4.188,4.188,0,0,0-.481.019A5.451,5.451,0,0,0,1.057,6.8,6.306,6.306,0,0,0,.035,13.032a13.481,13.481,0,0,0,2.558,4.048,35.618,35.618,0,0,0,6.85,5.754.31.31,0,0,0,.173.058.27.27,0,0,0,.173-.058,36.676,36.676,0,0,0,5.47-4.276A18.5,18.5,0,0,0,18.636,14.4,7.4,7.4,0,0,0,19.519,9.6Z" transform="translate(2.375 -1.865)"></path></symbol><symbol xmlns="http://www.w3.org/2000/svg" viewBox="0 0 24 24" id="favorite_border-bcbe810b1c8684d420b21248b530177d"><path id="favorite_border-bcbe810b1c8684d420b21248b530177d_Tracé_2228" d="M19.519,9.6A5.717,5.717,0,0,0,14,4.858h0a5.238,5.238,0,0,0-1.8.278A5.692,5.692,0,0,0,9.616,6.8l-.1-.116a5.377,5.377,0,0,0-4.229-1.85,4.188,4.188,0,0,0-.481.019A5.451,5.451,0,0,0,1.057,6.8,6.306,6.306,0,0,0,.035,13.032a13.481,13.481,0,0,0,2.558,4.048,35.618,35.618,0,0,0,6.85,5.754.31.31,0,0,0,.173.058.27.27,0,0,0,.173-.058,36.676,36.676,0,0,0,5.47-4.276A18.5,18.5,0,0,0,18.636,14.4,7.4,7.4,0,0,0,19.519,9.6Zm-2.753,3.753a15.6,15.6,0,0,1-3.057,3.724,36.039,36.039,0,0,1-4.1,3.379,33.6,33.6,0,0,1-5.322-4.64,10.684,10.684,0,0,1-2.183-3.225,3.947,3.947,0,0,1,.487-4.367,2.955,2.955,0,0,1,2.38-1.222H5.3A4.416,4.416,0,0,1,8.53,8.741l.077.1.039.039,1.04,1.117.982-1.155a5.186,5.186,0,0,1,2.014-1.58A4.432,4.432,0,0,1,14,7.006a3.486,3.486,0,0,1,3.426,2.857A5.088,5.088,0,0,1,16.765,13.357Z" transform="translate(2.375 -1.865)"></path></symbol><symbol xmlns="http://www.w3.org/2000/svg" viewBox="0 0 24 24" id="collection_border-75c45573e9363c7b32ebea7827cfee9f"><path id="collection_border-75c45573e9363c7b32ebea7827cfee9f_Path_2324" d="M0,0H24V24H0Z" fill="none"></path><path id="collection_border-75c45573e9363c7b32ebea7827cfee9f_Path_2325" d="M15,7V19.97l-4.21-1.81L10,17.82l-.79.34L5,19.97V7H15m4-6H8.99A2,2,0,0,0,7,3H17a2.006,2.006,0,0,1,2,2V18l2,1V3A2.006,2.006,0,0,0,19,1ZM15,5H5A2.006,2.006,0,0,0,3,7V23l7-3,7,3V7A2.006,2.006,0,0,0,15,5Z"></path></symbol><symbol xmlns="http://www.w3.org/2000/svg" viewBox="0 0 24.091 24.091" id="collection-3bc5322e00fe26867fac4e2789268e75"><path id="collection-3bc5322e00fe26867fac4e2789268e75_Path_2322" d="M0,0H24.091V24.091H0Z" fill="none"></path><path id="collection-3bc5322e00fe26867fac4e2789268e75_Path_2323" d="M19.06,18.064l2.008,1V3.008A2.013,2.013,0,0,0,19.06,1H9.013a2,2,0,0,0-2,2.008H17.053A2.013,2.013,0,0,1,19.06,5.015ZM15.045,5.015H5.008A2.013,2.013,0,0,0,3,7.023v16.06l7.026-3.011,7.026,3.011V7.023A2.013,2.013,0,0,0,15.045,5.015Z" transform="translate(0.011 0.004)"></path></symbol><symbol xmlns="http://www.w3.org/2000/svg" viewBox="0 0 24 24" id="file_download-52cd692316623569e99b28a8fb3c831d"><g><rect fill="none" height="24" width="24"></rect></g><g><path d="M18,15v3H6v-3H4v3c0,1.1,0.9,2,2,2h12c1.1,0,2-0.9,2-2v-3H18z M17,11l-1.41-1.41L13,12.17V4h-2v8.17L8.41,9.59L7,11l5,5 L17,11z"></path></g></symbol><symbol xmlns="http://www.w3.org/2000/svg" viewBox="0 0 24 24" id="search-fc3c150ba84cc841747f445aa8d2db4b"><path id="search-fc3c150ba84cc841747f445aa8d2db4b_Tracé_2229" d="M19.119,17.522l-4.65-4.65a7.908,7.908,0,0,0,1.483-6.045,7.981,7.981,0,1,0-9.124,9.124,8.153,8.153,0,0,0,6.045-1.483l4.65,4.65a.276.276,0,0,0,.4,0l1.2-1.2A.276.276,0,0,0,19.119,17.522ZM8.082,13.784a5.7,5.7,0,1,1,5.7-5.7A5.72,5.72,0,0,1,8.082,13.784Z" transform="translate(1.905 1.905)"></path></symbol><symbol xmlns="http://www.w3.org/2000/svg" viewBox="0 0 24 24" id="translate-1385c357d735956e5a66172f35f13cbb"><path d="M0 0h24v24H0V0z" fill="none"></path><path d="M12.65 15.67c.14-.36.05-.77-.23-1.05l-2.09-2.06.03-.03c1.74-1.94 2.98-4.17 3.71-6.53h1.94c.54 0 .99-.45.99-.99v-.02c0-.54-.45-.99-.99-.99H10V3c0-.55-.45-1-1-1s-1 .45-1 1v1H1.99c-.54 0-.99.45-.99.99 0 .55.45.99.99.99h10.18C11.5 7.92 10.44 9.75 9 11.35c-.81-.89-1.49-1.86-2.06-2.88-.16-.29-.45-.47-.78-.47-.69 0-1.13.75-.79 1.35.63 1.13 1.4 2.21 2.3 3.21L3.3 16.87c-.4.39-.4 1.03 0 1.42.39.39 1.02.39 1.42 0L9 14l2.02 2.02c.51.51 1.38.32 1.63-.35zM17.5 10c-.6 0-1.14.37-1.35.94l-3.67 9.8c-.24.61.22 1.26.87 1.26.39 0 .74-.24.88-.61l.89-2.39h4.75l.9 2.39c.14.36.49.61.88.61.65 0 1.11-.65.88-1.26l-3.67-9.8c-.22-.57-.76-.94-1.36-.94zm-1.62 7l1.62-4.33L19.12 17h-3.24z"></path></symbol><symbol xmlns="http://www.w3.org/2000/svg" viewBox="0 0 24 24" fill="#000000" id="filter_list_off-26f70b9bfe0a3e30a5e23dabf3d39f34"><g><rect fill="none" height="24" width="24"></rect></g><g><path d="M10.83,8H21V6H8.83L10.83,8z M15.83,13H18v-2h-4.17L15.83,13z M14,16.83V18h-4v-2h3.17l-3-3H6v-2h2.17l-3-3H3V6h0.17 L1.39,4.22l1.41-1.41l18.38,18.38l-1.41,1.41L14,16.83z"></path></g></symbol><symbol xmlns="http://www.w3.org/2000/svg" viewBox="0 0 24 24" id="filter_list-f2ecbc88f73bd1adcf5a04f89af6f1b9"><path id="filter_list-f2ecbc88f73bd1adcf5a04f89af6f1b9_Icon" d="M10.778,18.955h4.444V16.732H10.778ZM3,7V9.222H23V7Zm3.333,7.088H19.667V11.866H6.333Z" transform="translate(-1 -1)"></path></symbol><symbol xmlns="http://www.w3.org/2000/svg" viewBox="0 0 24 24" id="clear-d5910dd0e9f84305827f5486554a1617"><path d="M0 0h24v24H0V0z" fill="none"></path><path d="M18.3 5.71c-.39-.39-1.02-.39-1.41 0L12 10.59 7.11 5.7c-.39-.39-1.02-.39-1.41 0-.39.39-.39 1.02 0 1.41L10.59 12 5.7 16.89c-.39.39-.39 1.02 0 1.41.39.39 1.02.39 1.41 0L12 13.41l4.89 4.89c.39.39 1.02.39 1.41 0 .39-.39.39-1.02 0-1.41L13.41 12l4.89-4.89c.38-.38.38-1.02 0-1.4z"></path></symbol><symbol xmlns="http://www.w3.org/2000/svg" xmlns:xlink="http://www.w3.org/1999/xlink" viewBox="0 0 512 512" id="facebook-44bb06ae3a856e098a443aacd12df861"><g><g><path d="M448,0H64C28.704,0,0,28.704,0,64v384c0,35.296,28.704,64,64,64h192V336h-64v-80h64v-64c0-53.024,42.976-96,96-96h64v80    h-32c-17.664,0-32-1.664-32,16v64h80l-32,80h-48v176h96c35.296,0,64-28.704,64-64V64C512,28.704,483.296,0,448,0z"></path></g></g><g></g><g></g><g></g><g></g><g></g><g></g><g></g><g></g><g></g><g></g><g></g><g></g><g></g><g></g><g></g></symbol><symbol xmlns="http://www.w3.org/2000/svg" xmlns:xlink="http://www.w3.org/1999/xlink" viewBox="0 0 512 512" id="twitter-3a25b38a4cb9320799bf6f0096bf1fab"><g><g><path d="M512,97.248c-19.04,8.352-39.328,13.888-60.48,16.576c21.76-12.992,38.368-33.408,46.176-58.016    c-20.288,12.096-42.688,20.64-66.56,25.408C411.872,60.704,384.416,48,354.464,48c-58.112,0-104.896,47.168-104.896,104.992    c0,8.32,0.704,16.32,2.432,23.936c-87.264-4.256-164.48-46.08-216.352-109.792c-9.056,15.712-14.368,33.696-14.368,53.056    c0,36.352,18.72,68.576,46.624,87.232c-16.864-0.32-33.408-5.216-47.424-12.928c0,0.32,0,0.736,0,1.152    c0,51.008,36.384,93.376,84.096,103.136c-8.544,2.336-17.856,3.456-27.52,3.456c-6.72,0-13.504-0.384-19.872-1.792    c13.6,41.568,52.192,72.128,98.08,73.12c-35.712,27.936-81.056,44.768-130.144,44.768c-8.608,0-16.864-0.384-25.12-1.44    C46.496,446.88,101.6,464,161.024,464c193.152,0,298.752-160,298.752-298.688c0-4.64-0.16-9.12-0.384-13.568    C480.224,136.96,497.728,118.496,512,97.248z"></path></g></g><g></g><g></g><g></g><g></g><g></g><g></g><g></g><g></g><g></g><g></g><g></g><g></g><g></g><g></g><g></g></symbol><symbol xmlns="http://www.w3.org/2000/svg" viewBox="0 0 24 24" id="instagram-afbc59c8ef4c20b64b1cecb621c8eaf4"><path id="instagram-afbc59c8ef4c20b64b1cecb621c8eaf4_Union_6" d="M14598.173-2775.757a7.367,7.367,0,0,1-2.43-.466,4.921,4.921,0,0,1-1.768-1.151,4.964,4.964,0,0,1-1.156-1.774,7.33,7.33,0,0,1-.467-2.429c-.047-1.065-.057-1.4-.057-4.123s.01-3.055.063-4.126a7.392,7.392,0,0,1,.463-2.426,4.977,4.977,0,0,1,1.154-1.771,4.893,4.893,0,0,1,1.773-1.156,7.336,7.336,0,0,1,2.428-.464c1.068-.047,1.406-.058,4.123-.058s3.053.011,4.125.061a7.337,7.337,0,0,1,2.428.466,4.895,4.895,0,0,1,1.77,1.151,4.891,4.891,0,0,1,1.156,1.774,7.317,7.317,0,0,1,.467,2.429c.047,1.065.051,1.4.051,4.12s-.012,3.058-.059,4.123a7.346,7.346,0,0,1-.467,2.429,5.11,5.11,0,0,1-2.926,2.925,7.319,7.319,0,0,1-2.426.466c-1.068.047-1.406.058-4.123.058S14599.237-2775.71,14598.173-2775.757Zm.094-18.071a5.49,5.49,0,0,0-1.857.345,3.114,3.114,0,0,0-1.148.745,3.026,3.026,0,0,0-.75,1.151,5.5,5.5,0,0,0-.346,1.854c-.047,1.052-.057,1.372-.057,4.04s.01,2.986.057,4.04a5.543,5.543,0,0,0,.346,1.858,3.118,3.118,0,0,0,.744,1.148,3.1,3.1,0,0,0,1.152.748,5.457,5.457,0,0,0,1.854.342c1.053.047,1.373.061,4.041.061s2.986-.014,4.039-.061a5.487,5.487,0,0,0,1.857-.342,3.327,3.327,0,0,0,1.9-1.9,5.5,5.5,0,0,0,.344-1.857c.047-1.054.059-1.369.059-4.038s-.012-2.983-.059-4.04a5.5,5.5,0,0,0-.344-1.854,3.107,3.107,0,0,0-.746-1.151,3.082,3.082,0,0,0-1.148-.745,5.49,5.49,0,0,0-1.857-.345c-1.051-.047-1.367-.058-4.039-.058S14599.321-2793.875,14598.267-2793.828Zm-1.105,8.128a5.14,5.14,0,0,1,5.139-5.139,5.139,5.139,0,0,1,5.137,5.139,5.14,5.14,0,0,1-5.137,5.141A5.14,5.14,0,0,1,14597.161-2785.7Zm1.8,0a3.334,3.334,0,0,0,3.334,3.333,3.333,3.333,0,0,0,3.332-3.333,3.333,3.333,0,0,0-3.332-3.331A3.333,3.333,0,0,0,14598.966-2785.7Zm7.475-5.34a1.2,1.2,0,0,1,1.2-1.2,1.2,1.2,0,0,1,1.2,1.2,1.2,1.2,0,0,1-1.2,1.2A1.2,1.2,0,0,1,14606.44-2791.041Z" transform="translate(-14590.296 2797.7)"></path></symbol><symbol xmlns="http://www.w3.org/2000/svg" xmlns:xlink="http://www.w3.org/1999/xlink" viewBox="0 0 511.977 511.977" id="pinterest-004b403dcc0e1051c80be1eab289afef"><g><g><path d="M262.948,0C122.628,0,48.004,89.92,48.004,187.968c0,45.472,25.408,102.176,66.08,120.16    c6.176,2.784,9.536,1.6,10.912-4.128c1.216-4.352,6.56-25.312,9.152-35.2c0.8-3.168,0.384-5.92-2.176-8.896    c-13.504-15.616-24.224-44.064-24.224-70.752c0-68.384,54.368-134.784,146.88-134.784c80,0,135.968,51.968,135.968,126.304    c0,84-44.448,142.112-102.208,142.112c-31.968,0-55.776-25.088-48.224-56.128c9.12-36.96,27.008-76.704,27.008-103.36    c0-23.904-13.504-43.68-41.088-43.68c-32.544,0-58.944,32.224-58.944,75.488c0,27.488,9.728,46.048,9.728,46.048    S144.676,371.2,138.692,395.488c-10.112,41.12,1.376,107.712,2.368,113.44c0.608,3.168,4.16,4.16,6.144,1.568    c3.168-4.16,42.08-59.68,52.992-99.808c3.968-14.624,20.256-73.92,20.256-73.92c10.72,19.36,41.664,35.584,74.624,35.584    c98.048,0,168.896-86.176,168.896-193.12C463.62,76.704,375.876,0,262.948,0z"></path></g></g><g></g><g></g><g></g><g></g><g></g><g></g><g></g><g></g><g></g><g></g><g></g><g></g><g></g><g></g><g></g></symbol><symbol xmlns="http://www.w3.org/2000/svg" viewBox="0 0 26.317 30.811" id="apple-ced548544690ba85d11fe356474d437e"><g id="apple-ced548544690ba85d11fe356474d437e_apple" transform="translate(-35.336)"><g id="apple-ced548544690ba85d11fe356474d437e_Group_4914" transform="translate(49.984)"><g id="apple-ced548544690ba85d11fe356474d437e_Group_4913"><path id="apple-ced548544690ba85d11fe356474d437e_Path_2231" d="M253.808,0a7.23,7.23,0,0,0-4.681,2.534,6.28,6.28,0,0,0-1.533,4.88A6.1,6.1,0,0,0,252.317,5,6.779,6.779,0,0,0,253.808,0Z" transform="translate(-247.522)"></path></g></g><g id="apple-ced548544690ba85d11fe356474d437e_Group_4916" transform="translate(37.336 7.212)"><g id="apple-ced548544690ba85d11fe356474d437e_Group_4915" transform="translate(0)"><path id="apple-ced548544690ba85d11fe356474d437e_Path_2232" d="M62.762,122.965a7.8,7.8,0,0,0-5.887-3.125c-2.763,0-3.932,1.323-5.852,1.323-1.98,0-3.484-1.319-5.873-1.319a7.992,7.992,0,0,0-6.432,3.888c-2.228,3.455-1.847,9.95,1.764,15.482,1.292,1.98,3.018,4.206,5.274,4.225,2.008.019,2.575-1.288,5.3-1.3s3.237,1.319,5.242,1.3c2.259-.017,4.079-2.484,5.371-4.464a22.2,22.2,0,0,0,1.989-3.736A6.793,6.793,0,0,1,62.762,122.965Z" transform="translate(-37.336 -119.84)"></path></g></g></g></symbol><symbol xmlns="http://www.w3.org/2000/svg" viewBox="0 0 26.539 31.365" id="android-0d640419dae53db053155aecccffbe65"><g id="android-0d640419dae53db053155aecccffbe65_android-logo" transform="translate(-42.544 0)"><g id="android-0d640419dae53db053155aecccffbe65_Group_4917" transform="translate(42.544 0)"><path id="android-0d640419dae53db053155aecccffbe65_Path_2233" d="M44.485,179.141a1.872,1.872,0,0,0-1.376.565,1.851,1.851,0,0,0-.565,1.357v8.1a1.931,1.931,0,0,0,1.941,1.942,1.844,1.844,0,0,0,1.367-.565,1.89,1.89,0,0,0,.556-1.376v-8.1a1.93,1.93,0,0,0-1.923-1.922Z" transform="translate(-42.544 -168.982)"></path><path id="android-0d640419dae53db053155aecccffbe65_Path_2234" d="M135.656,2.884,136.995.415A.248.248,0,0,0,136.9.038a.261.261,0,0,0-.377.113l-1.357,2.489a9.454,9.454,0,0,0-7.577,0L126.232.151a.261.261,0,0,0-.377-.113.248.248,0,0,0-.094.377L127.1,2.884a8.264,8.264,0,0,0-3.242,2.894,7.308,7.308,0,0,0-1.206,4.062h17.435a7.31,7.31,0,0,0-1.206-4.062A8.3,8.3,0,0,0,135.656,2.884Zm-7.737,3.591a.707.707,0,0,1-.519.217.675.675,0,0,1-.509-.217.751.751,0,0,1,0-1.036.677.677,0,0,1,.509-.217.733.733,0,0,1,.519,1.253Zm7.945,0a.676.676,0,0,1-.509.217.735.735,0,0,1,0-1.47.677.677,0,0,1,.509.217.752.752,0,0,1,0,1.036Z" transform="translate(-118.108 0)"></path><path id="android-0d640419dae53db053155aecccffbe65_Path_2235" d="M123.971,198a2.058,2.058,0,0,0,2.073,2.073h1.395l.019,4.279a1.873,1.873,0,0,0,.565,1.376,1.851,1.851,0,0,0,1.357.565,1.931,1.931,0,0,0,1.941-1.942v-4.279h2.6v4.279a1.941,1.941,0,1,0,3.882,0v-4.279h1.414A2.059,2.059,0,0,0,141.273,198V185.45h-17.3Z" transform="translate(-119.353 -174.933)"></path><path id="android-0d640419dae53db053155aecccffbe65_Path_2236" d="M444.3,179.141a1.868,1.868,0,0,0-1.357.556,1.843,1.843,0,0,0-.565,1.366v8.1a1.872,1.872,0,0,0,.565,1.376,1.851,1.851,0,0,0,1.357.565,1.93,1.93,0,0,0,1.941-1.942v-8.1a1.843,1.843,0,0,0-.565-1.366A1.891,1.891,0,0,0,444.3,179.141Z" transform="translate(-419.701 -168.982)"></path></g></g></symbol><symbol xmlns="http://www.w3.org/2000/svg" viewBox="0 0 24 24" id="language-bda6b6bd204009d79667166d2c593750"><path d="M0 0h24v24H0V0z" fill="none"></path><path d="M11.99 2C6.47 2 2 6.48 2 12s4.47 10 9.99 10C17.52 22 22 17.52 22 12S17.52 2 11.99 2zm6.93 6h-2.95c-.32-1.25-.78-2.45-1.38-3.56 1.84.63 3.37 1.91 4.33 3.56zM12 4.04c.83 1.2 1.48 2.53 1.91 3.96h-3.82c.43-1.43 1.08-2.76 1.91-3.96zM4.26 14C4.1 13.36 4 12.69 4 12s.1-1.36.26-2h3.38c-.08.66-.14 1.32-.14 2s.06 1.34.14 2H4.26zm.82 2h2.95c.32 1.25.78 2.45 1.38 3.56-1.84-.63-3.37-1.9-4.33-3.56zm2.95-8H5.08c.96-1.66 2.49-2.93 4.33-3.56C8.81 5.55 8.35 6.75 8.03 8zM12 19.96c-.83-1.2-1.48-2.53-1.91-3.96h3.82c-.43 1.43-1.08 2.76-1.91 3.96zM14.34 14H9.66c-.09-.66-.16-1.32-.16-2s.07-1.35.16-2h4.68c.09.65.16 1.32.16 2s-.07 1.34-.16 2zm.25 5.56c.6-1.11 1.06-2.31 1.38-3.56h2.95c-.96 1.65-2.49 2.93-4.33 3.56zM16.36 14c.08-.66.14-1.32.14-2s-.06-1.34-.14-2h3.38c.16.64.26 1.31.26 2s-.1 1.36-.26 2h-3.38z"></path></symbol><symbol xmlns="http://www.w3.org/2000/svg" viewBox="0 0 24 24" id="play_circle_filled-e24752d3c05edcaa16be979f3ecab611"><path d="M12 2C6.48 2 2 6.48 2 12s4.48 10 10 10 10-4.48 10-10S17.52 2 12 2zm-2 13.5v-7c0-.41.47-.65.8-.4l4.67 3.5c.27.2.27.6 0 .8l-4.67 3.5c-.33.25-.8.01-.8-.4z"></path></symbol><symbol xmlns="http://www.w3.org/2000/svg" viewBox="0 0 105.611 26.448" id="istock-0a065de0deb2fb4ecfccf631662d756f"><path id="istock-0a065de0deb2fb4ecfccf631662d756f_Path_2443" d="M4085.43-6560.062h-4.774v-17.819h4.774Zm4.581-6.871a8.46,8.46,0,0,0,6.061,2.828c2.206,0,3.749-1.358,3.749-3.231,0-3.3-4.775-3.708-8.229-5.728a6.5,6.5,0,0,1-3.639-5.846c0-4.589,4.227-7.234,8.487-7.234a11.9,11.9,0,0,1,7.458,2.426l-2.57,3.67a6.9,6.9,0,0,0-4.449-1.686c-1.872,0-3.965.8-3.965,2.787,0,4.155,11.865,2.866,11.865,11.537,0,4.555-4.078,7.714-8.708,7.714a13.707,13.707,0,0,1-9.292-3.858l3.231-3.378Zm29.6,6.871a11.784,11.784,0,0,1-2.977.366c-2.864,0-4.958-.956-6.172-2.571-.917-1.212-1.323-2.789-1.323-5.326v-6.246h-4.958v-4.042h4.958v-4.958h4.776v4.958h5.878v4.042h-5.878v6.794a3.266,3.266,0,0,0,.589,2.243,3.008,3.008,0,0,0,2.423.882,11.285,11.285,0,0,0,1.948-.185Zm10.59-18.186a9.28,9.28,0,0,1,9.477,9.3,9.248,9.248,0,0,1-9.477,9.255,9.247,9.247,0,0,1-9.478-9.255,9.28,9.28,0,0,1,9.478-9.3m0,14.143a4.651,4.651,0,0,0,4.7-4.846,4.683,4.683,0,0,0-4.7-4.888,4.684,4.684,0,0,0-4.7,4.888,4.652,4.652,0,0,0,4.7,4.846m28.335.4a9.45,9.45,0,0,1-8.084,4,9.244,9.244,0,0,1-9.552-9.255,9.33,9.33,0,0,1,9.588-9.3,9.5,9.5,0,0,1,7.494,3.565l-3.379,2.975a5.154,5.154,0,0,0-4.115-2.131,4.777,4.777,0,0,0-4.812,4.888,4.709,4.709,0,0,0,4.925,4.847,5.223,5.223,0,0,0,4.259-2.35l3.677,2.753Zm10.741-6.171,9.809,9.809h-6.43l-7.533-7.716v7.716h-4.773v-25.716h4.773v13.668l6.134-5.771h6.727Zm-89.359-13.151a3.122,3.122,0,0,1,3.122-3.122,3.122,3.122,0,0,1,3.122,3.122,3.122,3.122,0,0,1-3.122,3.123,3.122,3.122,0,0,1-3.122-3.123m99.368,20.2a3.121,3.121,0,0,1,3.121-3.122,3.122,3.122,0,0,1,3.123,3.122,3.121,3.121,0,0,1-3.123,3.123,3.122,3.122,0,0,1-3.122-3.123" transform="translate(-4079.922 6586.145)"></path></symbol><symbol xmlns="http://www.w3.org/2000/svg" viewBox="0 0 24 24" fill="currentColor" id="collections-270fc253d125380a5d218a7aa2b4a339"><path d="M22 16V4c0-1.1-.9-2-2-2H8c-1.1 0-2 .9-2 2v12c0 1.1.9 2 2 2h12c1.1 0 2-.9 2-2zm-10.6-3.47l1.63 2.18 2.58-3.22c.2-.25.58-.25.78 0l2.96 3.7c.26.33.03.81-.39.81H9c-.41 0-.65-.47-.4-.8l2-2.67c.2-.26.6-.26.8 0zM2 7v13c0 1.1.9 2 2 2h13c.55 0 1-.45 1-1s-.45-1-1-1H5c-.55 0-1-.45-1-1V7c0-.55-.45-1-1-1s-1 .45-1 1z"></path></symbol><symbol xmlns="http://www.w3.org/2000/svg" viewBox="0 0 24 24" id="lock-2ed158a7150055c86a4c1d52b46a030e"><path id="lock-2ed158a7150055c86a4c1d52b46a030e_Tracé_2226" d="M28.991,14.042H28.26V11.36a6.36,6.36,0,1,0-12.72,0v2.681h-.731a.913.913,0,0,0-.909.909v9.086a.913.913,0,0,0,.909.909H28.991a.913.913,0,0,0,.909-.909V14.95A.913.913,0,0,0,28.991,14.042ZM18.111,11.36a3.789,3.789,0,1,1,7.579,0v2.681H18.111Z" transform="translate(-9.9 -2.972)"></path></symbol><symbol xmlns="http://www.w3.org/2000/svg" viewBox="0 0 24 24" id="check_circle-2367d4b9e15475fe15964657665b72e1"><path id="check_circle-2367d4b9e15475fe15964657665b72e1_Soustraction_1" d="M14068-2921.7a10.01,10.01,0,0,1-10-10,10.01,10.01,0,0,1,10-10,9.941,9.941,0,0,1,7.074,2.928,9.932,9.932,0,0,1,2.929,7.07,9.932,9.932,0,0,1-2.929,7.07A9.941,9.941,0,0,1,14068-2921.7Zm-2.822-10.671h0l-1.322,1.322,2.792,2.791a.941.941,0,0,0,.66.272h.05a.92.92,0,0,0,.668-.336l4.656-5.586-1.435-1.191-4,4.8-2.066-2.074Z" transform="translate(-14056 2943.703)"></path></symbol><symbol xmlns="http://www.w3.org/2000/svg" viewBox="0 0 24 24" id="place-15289207a17c5dc051c9c8beb83babba"><g><rect fill="none" height="24" width="24" y="0"></rect></g><g><path d="M12,2c-4.2,0-8,3.22-8,8.2c0,3.18,2.45,6.92,7.34,11.23c0.38,0.33,0.95,0.33,1.33,0 C17.55,17.12,20,13.38,20,10.2C20,5.22,16.2,2,12,2z M12,12c-1.1,0-2-0.9-2-2c0-1.1,0.9-2,2-2c1.1,0,2,0.9,2,2 C14,11.1,13.1,12,12,12z" enable-background="new"></path></g></symbol><symbol xmlns="http://www.w3.org/2000/svg" viewBox="0.142 0.132 18.05 16.095" id="closed_caption-100a3972d4b39bb09793f3a846597113"><path d="M 16.177 0.182 L 2.177 0.182 C 1.067 0.182 0.177 1.082 0.177 2.182 L 0.177 14.182 C 0.177 15.282 1.067 16.182 2.177 16.182 L 16.177 16.182 C 17.277 16.182 18.177 15.282 18.177 14.182 L 18.177 2.182 C 18.177 1.082 17.277 0.182 16.177 0.182 Z M 8.177 6.682 C 8.177 6.962 7.957 7.182 7.677 7.182 L 7.177 7.182 C 6.897 7.182 6.677 6.962 6.677 6.682 L 4.677 6.682 L 4.677 9.682 L 6.677 9.682 C 6.677 9.402 6.897 9.182 7.177 9.182 L 7.677 9.182 C 7.957 9.182 8.177 9.402 8.177 9.682 L 8.177 10.182 C 8.177 10.732 7.727 11.182 7.177 11.182 L 4.177 11.182 C 3.627 11.182 3.177 10.732 3.177 10.182 L 3.177 6.182 C 3.177 5.632 3.627 5.182 4.177 5.182 L 7.177 5.182 C 7.727 5.182 8.177 5.632 8.177 6.182 L 8.177 6.682 Z M 15.177 6.682 C 15.177 6.962 14.957 7.182 14.677 7.182 L 14.177 7.182 C 13.897 7.182 13.677 6.962 13.677 6.682 L 11.677 6.682 L 11.677 9.682 L 13.677 9.682 C 13.677 9.402 13.897 9.182 14.177 9.182 L 14.677 9.182 C 14.957 9.182 15.177 9.402 15.177 9.682 L 15.177 10.182 C 15.177 10.732 14.727 11.182 14.177 11.182 L 11.177 11.182 C 10.627 11.182 10.177 10.732 10.177 10.182 L 10.177 6.182 C 10.177 5.632 10.627 5.182 11.177 5.182 L 14.177 5.182 C 14.727 5.182 15.177 5.632 15.177 6.182 L 15.177 6.682 Z"></path></symbol><symbol xmlns="http://www.w3.org/2000/svg" fill="none" viewBox="0 0 1900 1900" id="canva_circle-086aa91cfb911aae34ae28170ce5899f"><circle cx="950" cy="950" r="950" fill="#7D2AE7"></circle><circle cx="950" cy="950" r="950" fill="url(#canva_circle-086aa91cfb911aae34ae28170ce5899f_a)"></circle><circle cx="950" cy="950" r="950" fill="url(#canva_circle-086aa91cfb911aae34ae28170ce5899f_b)"></circle><circle cx="950" cy="950" r="950" fill="url(#canva_circle-086aa91cfb911aae34ae28170ce5899f_c)"></circle><circle cx="950" cy="950" r="950" fill="url(#canva_circle-086aa91cfb911aae34ae28170ce5899f_d)"></circle><path fill="#fff" d="M1360.14 1144.88c-7.84 0-14.74 6.62-21.92 21.08-81.08 164.41-221.12 280.74-383.174 280.74-187.38 0-303.419-169.15-303.419-402.83 0-395.834 220.548-624.697 414.263-624.697 90.52 0 145.8 56.885 145.8 147.41 0 107.439-61.04 164.324-61.04 202.216 0 17.009 10.58 27.308 31.56 27.308 84.29 0 183.22-96.855 183.22-233.682 0-132.669-115.47-230.186-309.18-230.186-320.145 0-604.665 296.804-604.665 707.471 0 317.88 181.522 527.94 461.601 527.94 297.274 0 469.164-295.77 469.164-391.77 0-21.26-10.87-31-22.21-31Z"></path><defs><radialGradient id="canva_circle-086aa91cfb911aae34ae28170ce5899f_a" cx="0" cy="0" r="1" gradientTransform="rotate(-49.416 2013.48303023 443.1854085) scale(1469.49)" gradientUnits="userSpaceOnUse"><stop stop-color="#6420FF"></stop><stop offset="1" stop-color="#6420FF" stop-opacity="0"></stop></radialGradient><radialGradient id="canva_circle-086aa91cfb911aae34ae28170ce5899f_b" cx="0" cy="0" r="1" gradientTransform="rotate(54.703 42.71673666 594.1943586) scale(1657.12)" gradientUnits="userSpaceOnUse"><stop stop-color="#00C4CC"></stop><stop offset="1" stop-color="#00C4CC" stop-opacity="0"></stop></radialGradient><radialGradient id="canva_circle-086aa91cfb911aae34ae28170ce5899f_c" cx="0" cy="0" r="1" gradientTransform="matrix(1023.00018 -1030.00171 473.71139 470.4913 367 1684)" gradientUnits="userSpaceOnUse"><stop stop-color="#6420FF"></stop><stop offset="1" stop-color="#6420FF" stop-opacity="0"></stop></radialGradient><radialGradient id="canva_circle-086aa91cfb911aae34ae28170ce5899f_d" cx="0" cy="0" r="1" gradientTransform="matrix(595.99869 1371.99953 -2298.40601 998.43108 777 256)" gradientUnits="userSpaceOnUse"><stop stop-color="#00C4CC" stop-opacity=".725916"></stop><stop offset=".0001" stop-color="#00C4CC"></stop><stop offset="1" stop-color="#00C4CC" stop-opacity="0"></stop></radialGradient></defs></symbol><symbol xmlns="http://www.w3.org/2000/svg" viewBox="0 0 24 24" id="content_copy-e2113e80f8290106aa40ec6420ae9634"><path id="content_copy-e2113e80f8290106aa40ec6420ae9634_Tracé_2216" d="M77.805,81.611H84.73a1.655,1.655,0,0,1,1.659,1.631v6.953a1.655,1.655,0,0,1-1.659,1.631H77.805a1.649,1.649,0,0,1-1.631-1.631V83.242A1.649,1.649,0,0,1,77.805,81.611Zm5.436-5.436h6.953a1.649,1.649,0,0,1,1.631,1.631V84.73a1.655,1.655,0,0,1-1.631,1.659H88.564V83.242a3.766,3.766,0,0,0-1.116-2.661v-.029h-.029a3.783,3.783,0,0,0-2.69-1.116H81.611V77.805A1.649,1.649,0,0,1,83.242,76.175Zm5.322,12.389h1.631a3.766,3.766,0,0,0,2.661-1.116h0l.029-.029h0A3.782,3.782,0,0,0,94,84.73V77.805a3.885,3.885,0,0,0-1.116-2.69h-.029A3.766,3.766,0,0,0,90.195,74H83.242a3.766,3.766,0,0,0-2.661,1.116h-.029a3.833,3.833,0,0,0-1.116,2.69v1.631H77.805a3.885,3.885,0,0,0-2.69,1.116h0A3.885,3.885,0,0,0,74,83.242v6.953a3.766,3.766,0,0,0,1.116,2.661h0v.029h0A3.833,3.833,0,0,0,77.805,94H84.73a3.782,3.782,0,0,0,2.69-1.116h0l.029-.029a3.766,3.766,0,0,0,1.116-2.661Z" transform="translate(-72.001 -72)"></path></symbol><symbol xmlns="http://www.w3.org/2000/svg" xmlns:xlink="http://www.w3.org/1999/xlink" viewBox="0 0 512 512" id="linkedin-1eeec9de73607187125c896cb1eff47d"><g><g><rect y="160" width="114.496" height="352"></rect></g></g><g><g><path d="M426.368,164.128c-1.216-0.384-2.368-0.8-3.648-1.152c-1.536-0.352-3.072-0.64-4.64-0.896    c-6.08-1.216-12.736-2.08-20.544-2.08c-66.752,0-109.088,48.544-123.04,67.296V160H160v352h114.496V320    c0,0,86.528-120.512,123.04-32c0,79.008,0,224,0,224H512V274.464C512,221.28,475.552,176.96,426.368,164.128z"></path></g></g><g><g><circle cx="56" cy="56" r="56"></circle></g></g><g></g><g></g><g></g><g></g><g></g><g></g><g></g><g></g><g></g><g></g><g></g><g></g><g></g><g></g><g></g></symbol><symbol xmlns="http://www.w3.org/2000/svg" xmlns:xlink="http://www.w3.org/1999/xlink" viewBox="0 0 512 512" id="tumblr-dd317712b29d723333f4090c081db596"><g><g><path d="M348.832,428.544c-14.208,0-27.52-3.328-38.528-10.048c-8.8-5.12-16.544-13.824-19.616-22.112    c-3.072-8.448-2.752-25.728-2.752-55.296V223.84h128.096v-95.808H287.936V0h-82.528c-3.328,26.336-9.312,48.192-18.112,65.088    c-8.416,17.216-20.256,31.776-34.24,44.096c-14.464,12.192-36.864,21.504-57.088,28.128v72.544h68.704V389.28    c0,23.52,2.368,41.472,7.424,53.728c4.96,12.352,13.44,23.968,26.4,34.848c12.736,11.008,27.968,19.456,46.176,25.408    C262.4,509.12,276.352,512,299.808,512c20.576,0,39.808-1.952,57.408-6.272c17.632-4,36.8-10.08,58.816-20.352v-76.96    C390.304,425.216,374.784,428.544,348.832,428.544z"></path></g></g><g></g><g></g><g></g><g></g><g></g><g></g><g></g><g></g><g></g><g></g><g></g><g></g><g></g><g></g><g></g></symbol><symbol xmlns="http://www.w3.org/2000/svg" viewBox="0 0 24 24" id="share-798668cb7d843635d2c9fd39f44c6693"><path id="share-798668cb7d843635d2c9fd39f44c6693_Union_4" d="M14168.312-2923.5a4.826,4.826,0,0,1-4.813-4.814v-7.37a4.826,4.826,0,0,1,4.813-4.813h2.021a3.234,3.234,0,0,0-.215,1.107,3.237,3.237,0,0,0,.215,1.11h-2.021a2.6,2.6,0,0,0-2.592,2.6v7.37a2.594,2.594,0,0,0,2.592,2.6h7.373a2.6,2.6,0,0,0,2.6-2.6v-2.021a2.857,2.857,0,0,0,1.107.215,3.185,3.185,0,0,0,1.109-.215v2.021a4.825,4.825,0,0,1-4.813,4.814Zm2.9-7.709a1.127,1.127,0,0,1,0-1.573l5.5-5.5h-3.5a1.114,1.114,0,0,1-1.11-1.107,1.114,1.114,0,0,1,1.11-1.107h6.185a1.113,1.113,0,0,1,1.106,1.107v6.184a1.113,1.113,0,0,1-1.106,1.107,1.114,1.114,0,0,1-1.11-1.107v-3.5l-5.5,5.5a1.106,1.106,0,0,1-.786.324A1.111,1.111,0,0,1,14171.208-2931.211Z" transform="translate(-14159.998 2944.001)"></path></symbol><symbol xmlns="http://www.w3.org/2000/svg" viewBox="0 0 24 24" id="info-b2f8545d0b86458a31522dc4199698ca"><path id="info-b2f8545d0b86458a31522dc4199698ca_Tracé_2222" d="M10.01,0A10,10,0,1,1,0,9.974,10,10,0,0,1,10.01,0ZM9.246,7.6H7.462a1.49,1.49,0,0,0-.384.054.372.372,0,0,0-.292.31.356.356,0,0,0,.2.412,1.816,1.816,0,0,0,.61.164c.556.026.78.27.7.842-.156,1.07-.366,2.132-.546,3.2-.122.72-.224,1.442-.342,2.162a1.917,1.917,0,0,0,1.464,2,8.532,8.532,0,0,0,1.284.082,3.342,3.342,0,0,0,2.43-1.052.924.924,0,0,0,.25-.386.474.474,0,0,0-.084-.368.362.362,0,0,0-.314-.034c-.164.054-.31.166-.47.236a2.9,2.9,0,0,1-.584.2.57.57,0,0,1-.7-.508,1.926,1.926,0,0,1-.018-.564c.068-.464.164-.924.248-1.384q.342-1.882.694-3.766a2.7,2.7,0,0,0,.1-1.044.6.6,0,0,0-.652-.556Zm1.088-4.448A1.816,1.816,0,1,0,12.07,5.006a1.816,1.816,0,0,0-1.736-1.854Z" transform="translate(2 2)"></path></symbol><symbol xmlns="http://www.w3.org/2000/svg" viewBox="0 0 24 24" id="person_add-7817ddf2be4cca4cef268bb1d5b3e633"><g id="person_add-7817ddf2be4cca4cef268bb1d5b3e633_Groupe_4919" transform="translate(0.064 0.066)"><path id="person_add-7817ddf2be4cca4cef268bb1d5b3e633_Tracé_2231" d="M38.613,33.828H35.742V30.957a.957.957,0,1,0-1.914,0v2.871H30.957a.96.96,0,0,0-.957.957.869.869,0,0,0,.287.67.959.959,0,0,0,.67.287h2.871v2.871a.869.869,0,0,0,.287.67.947.947,0,0,0,1.627-.67V35.742h2.871a.957.957,0,0,0,0-1.914Z" transform="translate(-18.134 -17.78)"></path><path id="person_add-7817ddf2be4cca4cef268bb1d5b3e633_Tracé_2232" d="M14.6,1002.978c-3.977,0-7.6,2.625-7.6,6.6a1.169,1.169,0,0,0,1.107,1.045,1.392,1.392,0,0,0,1.119-1.251c.554-2.7,2.44-4.19,5.376-4.19C16.258,1005.156,15.716,1002.978,14.6,1002.978Z" transform="translate(-4.564 -989.481)"></path><path id="person_add-7817ddf2be4cca4cef268bb1d5b3e633_Tracé_2233" d="M22.524,958.362a5.031,5.031,0,1,0,5.036,5.031A5.049,5.049,0,0,0,22.524,958.362Zm0,2.012a3.018,3.018,0,1,1-3.022,3.018A3,3,0,0,1,22.524,960.374Z" transform="translate(-11.635 -956.285)"></path></g></symbol><symbol xmlns="http://www.w3.org/2000/svg" viewBox="0 0 24 24" id="person_remove-1440226b792a85e2e0e05a2b675157e1"><g><rect fill="none" height="24" width="24"></rect><rect fill="none" height="24" width="24"></rect></g><g><path d="M14,8c0-2.21-1.79-4-4-4S6,5.79,6,8s1.79,4,4,4S14,10.21,14,8z M2,18v1c0,0.55,0.45,1,1,1h14c0.55,0,1-0.45,1-1v-1 c0-2.66-5.33-4-8-4S2,15.34,2,18z M18,10h4c0.55,0,1,0.45,1,1v0c0,0.55-0.45,1-1,1h-4c-0.55,0-1-0.45-1-1v0 C17,10.45,17.45,10,18,10z"></path></g></symbol></svg>